<?xml version="1.0" encoding="UTF-8" standalone="no"?>
<!DOCTYPE svg PUBLIC "-//W3C//DTD SVG 1.1//EN" "http://www.w3.org/Graphics/SVG/1.1/DTD/svg11.dtd">
<svg width="100%" height="100%" viewBox="0 0 100 100" version="1.1" xmlns="http://www.w3.org/2000/svg" xmlns:xlink="http://www.w3.org/1999/xlink" xml:space="preserve" xmlns:serif="http://www.serif.com/" style="fill-rule:evenodd;clip-rule:evenodd;stroke-linejoin:round;stroke-miterlimit:2;">
    <g transform="matrix(5.55556,0,0,5.55556,0,0)">
        <g id="ae82470d-7a6c-4dfe-8533-59d8ff948629">
            <g>
                <path d="M8.617,8.644L0.639,8.644L0.639,1.784C0.639,1.152 1.156,0.63 1.788,0.624L8.617,0.624L8.617,8.644ZM1.63,7.653L7.63,7.653L7.63,1.594L1.788,1.594C1.701,1.594 1.63,1.665 1.63,1.752L1.63,7.653Z" style="fill:rgb(148,148,148);fill-rule:nonzero;"/>
                <path d="M17.5,8.644L9.523,8.644L9.523,0.624L16.351,0.624C16.983,0.63 17.5,1.152 17.5,1.784L17.5,8.644ZM10.513,7.653L16.513,7.653L16.513,1.784C16.515,1.773 16.517,1.762 16.517,1.751C16.517,1.676 16.463,1.612 16.39,1.597C16.378,1.596 16.367,1.596 16.355,1.597L10.513,1.597L10.513,7.653Z" style="fill:rgb(148,148,148);fill-rule:nonzero;"/>
                <path d="M8.617,17.485L1.788,17.485C1.162,17.485 0.645,16.973 0.639,16.347L0.639,9.476L8.617,9.476L8.617,17.485ZM1.63,10.467L1.63,16.347C1.63,16.434 1.701,16.505 1.788,16.505L7.626,16.505L7.626,10.467L1.63,10.467Z" style="fill:rgb(148,148,148);fill-rule:nonzero;"/>
                <path d="M16.351,17.485L9.523,17.485L9.523,9.476L17.5,9.476L17.5,16.347C17.494,16.973 16.977,17.485 16.351,17.485ZM10.513,16.494L16.351,16.494C16.351,16.494 16.352,16.494 16.352,16.494C16.438,16.494 16.509,16.423 16.509,16.337C16.509,16.337 16.509,16.336 16.509,16.336L16.509,10.467L10.509,10.467L10.513,16.494Z" style="fill:rgb(148,148,148);fill-rule:nonzero;"/>
                <path d="M14.6,6.294C14.6,6.168 14.519,6.056 14.4,6.016L9.044,4.205C9.03,4.201 9.015,4.199 9,4.2C9,4.2 8.999,4.2 8.999,4.2C8.927,4.2 8.867,4.26 8.867,4.332C8.867,4.332 8.867,4.333 8.867,4.333L8.867,13.778C8.867,13.851 8.927,13.911 9,13.911C9.017,13.911 9.033,13.907 9.049,13.901L14.414,11.756C14.525,11.712 14.598,11.604 14.598,11.484L14.6,6.294Z" style="fill:url(#_Linear1);fill-rule:nonzero;"/>
                <path d="M8.966,4.2L3.673,5.166C3.598,5.181 3.543,5.247 3.543,5.324L3.543,12.63C3.543,12.705 3.595,12.771 3.669,12.787L8.962,13.91C9.047,13.929 9.133,13.874 9.153,13.789C9.154,13.777 9.154,13.765 9.153,13.753L9.153,4.358C9.152,4.274 9.084,4.204 9,4.2C8.989,4.199 8.977,4.199 8.966,4.2Z" style="fill:url(#_Linear2);fill-rule:nonzero;"/>
                <path d="M6.52,5.656L6.52,12.456L8.362,12.756L8.362,5.335L6.52,5.656ZM4.258,6.023L4.258,11.978L5.858,12.304L5.858,5.754L4.258,6.023Z" style="fill:rgb(183,150,249);fill-opacity:0.5;fill-rule:nonzero;"/>
            </g>
        </g>
    </g>
    <defs>
        <linearGradient id="_Linear1" x1="0" y1="0" x2="1" y2="0" gradientUnits="userSpaceOnUse" gradientTransform="matrix(5.03269e-16,8.219,-8.219,5.03269e-16,11.729,4.88)"><stop offset="0" style="stop-color:rgb(119,58,220);stop-opacity:1"/><stop offset="0" style="stop-color:rgb(119,58,220);stop-opacity:1"/><stop offset="0.53" style="stop-color:rgb(102,53,187);stop-opacity:1"/><stop offset="1" style="stop-color:rgb(85,47,153);stop-opacity:1"/></linearGradient>
        <linearGradient id="_Linear2" x1="0" y1="0" x2="1" y2="0" gradientUnits="userSpaceOnUse" gradientTransform="matrix(5.94933e-16,-9.716,9.716,5.94933e-16,6.35,13.914)"><stop offset="0" style="stop-color:rgb(119,58,220);stop-opacity:1"/><stop offset="0" style="stop-color:rgb(119,58,220);stop-opacity:1"/><stop offset="0.31" style="stop-color:rgb(121,61,221);stop-opacity:1"/><stop offset="0.53" style="stop-color:rgb(128,70,225);stop-opacity:1"/><stop offset="0.73" style="stop-color:rgb(140,86,231);stop-opacity:1"/><stop offset="0.92" style="stop-color:rgb(156,109,239);stop-opacity:1"/><stop offset="1" style="stop-color:rgb(166,122,244);stop-opacity:1"/></linearGradient>
    </defs>
</svg>
