<?xml version="1.0" encoding="UTF-8" standalone="no"?>

<svg fill="#000000" width="800px" height="800px" viewBox="0 0 24 24" role="img" xmlns="http://www.w3.org/2000/svg">
  <path style="fill:#ffffff;stroke-width:0.03" d="M 9.6601562,1.1601562 C 8.9209011,1.2121096 8.1759642,1.4145315 7.6992188,2.0234375 7.0557114,2.6026422 6.2168909,3.0479849 5.9108872,3.9146985 5.3664632,4.8802125 4.1563165,5.0318336 3.3583807,5.712081 2.6795172,6.3406553 2.1371678,7.156998 1.6359719,7.9354845 1.3064082,8.5952482 1.1223881,9.313373 1.1523438,10.054688 c -0.34443929,0.431084 0.2667051,0.671816 0.4785156,0.929687 0.038681,0.464157 -0.1647335,0.918951 -0.1001967,1.387707 -0.1032142,0.409977 0.050078,0.833235 0.3202252,1.113965 0.3595628,1.384413 0.2295158,2.846646 0.7211372,4.207295 0.1585932,0.52045 0.3440946,1.062479 0.6896937,1.486346 0.8532695,0.61082 1.6918949,1.282112 2.7229126,1.572269 0.782195,0.436883 1.6811827,0.468541 2.5388061,0.580074 1.153337,0.353775 2.2073115,1.094311 3.3984375,1.251953 0.819405,0.293335 1.695461,0.451148 2.554687,0.519532 0.691879,0.004 1.070308,-0.789464 1.759766,-0.753907 0.371383,-0.171768 0.472778,-0.681312 0.871094,-0.796875 0.114643,-0.778364 0.715685,-1.272078 1.169922,-1.849609 0.413294,-0.351604 0.896498,-0.558957 1.423828,-0.679687 0.331916,-0.383704 0.539454,-0.896884 0.904748,-1.285786 0.394904,-0.458911 0.567609,-1.146529 1.239783,-1.270855 0.501587,-0.241855 0.09609,-0.899173 0.527344,-1.21875 0.211108,-0.45459 0.277298,-0.977599 0.435547,-1.460938 0.02834,-0.492434 0.04777,-1.023629 -0.347656,-1.398437 C 22.21152,11.274832 21.975974,10.151742 21.981149,9.0178377 21.873041,7.7982473 21.457661,6.6507809 21.094468,5.4963177 20.777642,4.8588429 20.684762,3.9726723 19.885338,3.7312751 18.940002,3.4483009 18.073502,3.0060332 17.09956,2.8380759 16.22951,2.6148041 15.31455,2.5482251 14.461475,2.4234095 13.12126,1.5987009 11.575388,1.0145352 9.9762127,1.1553471 9.8708131,1.1468378 9.765508,1.1582252 9.6601562,1.1601562 Z" />
  <path d="M22.2819 9.8211a5.9847 5.9847 0 0 0-.5157-4.9108 6.0462 6.0462 0 0 0-6.5098-2.9A6.0651 6.0651 0 0 0 4.9807 4.1818a5.9847 5.9847 0 0 0-3.9977 2.9 6.0462 6.0462 0 0 0 .7427 7.0966 5.98 5.98 0 0 0 .511 4.9107 6.051 6.051 0 0 0 6.5146 2.9001A5.9847 5.9847 0 0 0 13.2599 24a6.0557 6.0557 0 0 0 5.7718-4.2058 5.9894 5.9894 0 0 0 3.9977-2.9001 6.0557 6.0557 0 0 0-.7475-7.0729zm-9.022 12.6081a4.4755 4.4755 0 0 1-2.8764-1.0408l.1419-.0804 4.7783-2.7582a.7948.7948 0 0 0 .3927-.6813v-6.7369l2.02 1.1686a.071.071 0 0 1 .038.052v5.5826a4.504 4.504 0 0 1-4.4945 4.4944zm-9.6607-4.1254a4.4708 4.4708 0 0 1-.5346-3.0137l.142.0852 4.783 2.7582a.7712.7712 0 0 0 .7806 0l5.8428-3.3685v2.3324a.0804.0804 0 0 1-.0332.0615L9.74 19.9502a4.4992 4.4992 0 0 1-6.1408-1.6464zM2.3408 7.8956a4.485 4.485 0 0 1 2.3655-1.9728V11.6a.7664.7664 0 0 0 .3879.6765l5.8144 3.3543-2.0201 1.1685a.0757.0757 0 0 1-.071 0l-4.8303-2.7865A4.504 4.504 0 0 1 2.3408 7.872zm16.5963 3.8558L13.1038 8.364 15.1192 7.2a.0757.0757 0 0 1 .071 0l4.8303 2.7913a4.4944 4.4944 0 0 1-.6765 8.1042v-5.6772a.79.79 0 0 0-.407-.667zm2.0107-3.0231l-.142-.0852-4.7735-2.7818a.7759.7759 0 0 0-.7854 0L9.409 9.2297V6.8974a.0662.0662 0 0 1 .0284-.0615l4.8303-2.7866a4.4992 4.4992 0 0 1 6.6802 4.66zM8.3065 12.863l-2.02-1.1638a.0804.0804 0 0 1-.038-.0567V6.0742a4.4992 4.4992 0 0 1 7.3757-3.4537l-.142.0805L8.704 5.459a.7948.7948 0 0 0-.3927.6813zm1.0976-2.3654l2.602-1.4998 2.6069 1.4998v2.9994l-2.5974 1.4997-2.6067-1.4997Z" />
</svg>
